# xmcd CD database file generated by Grip 3.2.0
# 
# Track frame offsets:
#       150
#       21702
#       37740
#       60668
#       78824
#       99407
#       118581
#       138360
#       158601
#       179970
# 
# Disc length: 2703 seconds
# 
# Revision: 2
# Processed by: cddbd v1.5.2PL0 Copyright (c) Steve Scherf et al.
# Submitted via: Grip 3.2.0
# 
DISCID=7d0a8d0a
DTITLE=The Unguided - Hellfrost
DYEAR=2011
DGENRE=Heavy Metal
TTITLE0=Inherit the earth
TTITLE1=Phoenix down
TTITLE2=Betrayer of the code
TTITLE3=My own death
TTITLE4=Serenade of guilt
TTITLE5=Collapse of my dream
TTITLE6=Green eyed demon
TTITLE7=Iceheart fragment
TTITLE8=Pathfinder
TTITLE9=Where the frost rose withers
EXTD=
EXTT0=
EXTT1=
EXTT2=
EXTT3=
EXTT4=
EXTT5=
EXTT6=
EXTT7=
EXTT8=
EXTT9=
PLAYORDER=
